<svg width="210" height="35" viewBox="0 0 210 35" fill="none" xmlns="http://www.w3.org/2000/svg">
<path d="M152.467 24.675C153.482 24.675 154.305 23.8521 154.305 22.837C154.305 21.8219 153.482 20.999 152.467 20.999C151.452 20.999 150.629 21.8219 150.629 22.837C150.629 23.8521 151.452 24.675 152.467 24.675Z" fill="black"/>
<path d="M186.78 18.1539C188.509 18.1539 189.92 16.7433 189.92 15.0136V15.0077C186.742 15.0077 186.76 15.0077 183.583 15.0077V11.7475H189.054C190.781 11.7475 192.191 10.3368 192.191 8.60714V8.60128H183.326C182.445 8.60128 180.072 9.85975 180.072 11.8586V24.6745H192.309V24.6687C192.309 22.9391 190.897 21.5284 189.168 21.5284H183.583V18.1539H186.78ZM115.583 24.6745H119.071V14.4575L126.854 24.6745H129.862V11.8586C129.862 10.0646 128.399 8.60128 126.605 8.60128H126.37V18.4963L119.818 9.88608C119.182 9.05199 118.279 8.60128 117.227 8.60128H115.583V24.6745ZM62.458 24.6745H65.9935V19.5294H68.7241L71.1766 23.1439C71.8468 24.1301 72.8711 24.6745 74.0623 24.6745H76.348L72.4204 18.9324C73.1053 18.6807 73.7052 18.3295 74.2232 17.8817C74.7354 17.4339 75.1364 16.8838 75.4232 16.2282C75.7158 15.5755 75.8592 14.8175 75.8651 13.9512C75.8651 13.1727 75.7451 12.4674 75.511 11.8441C75.2798 11.2148 74.9344 10.6792 74.4867 10.2314C73.9598 9.70171 73.3014 9.29783 72.517 9.0198C71.7327 8.74469 70.8254 8.60128 69.804 8.60128H65.9466C64.0238 8.60128 62.458 10.17 62.458 12.0899V24.6745ZM65.9935 16.4096V11.7942H69.5054C70.082 11.7942 70.5766 11.8792 70.9893 12.0489C71.4078 12.2216 71.7239 12.4791 71.9463 12.8186C72.1687 13.1611 72.2829 13.5853 72.2829 14.0888C72.2829 14.56 72.1746 14.9667 71.9667 15.315C71.7502 15.6575 71.4459 15.9267 71.0419 16.1169C70.6381 16.3101 70.1522 16.4037 69.5728 16.4096H65.9935ZM86.5181 24.9496C87.5132 24.9438 88.4468 24.8034 89.3131 24.5253C90.1794 24.2443 90.9667 23.8462 91.675 23.337C92.3774 22.8278 92.9861 22.2279 93.4953 21.5342C94.0016 20.8435 94.3909 20.0856 94.666 19.2544C94.9382 18.429 95.0758 17.5568 95.0815 16.6379C95.0758 15.7131 94.9411 14.8322 94.6718 14.0009C94.3997 13.1727 94.0134 12.4089 93.5129 11.7182C93.0066 11.0275 92.4066 10.4275 91.7042 9.9212C91.0018 9.41783 90.2175 9.02272 89.3512 8.74762C88.4878 8.47251 87.5571 8.33203 86.562 8.32617C85.567 8.33203 84.6392 8.4725 83.77 8.75054C82.9008 9.0315 82.1135 9.4266 81.4053 9.93877C80.6999 10.448 80.0912 11.048 79.5878 11.7387C79.0786 12.4293 78.6894 13.1903 78.4113 14.0215C78.1421 14.8468 78.0045 15.7189 77.9986 16.6379C78.0045 17.5627 78.1421 18.4437 78.4083 19.2748C78.6805 20.1031 79.0669 20.8669 79.5673 21.5577C80.0737 22.2483 80.6736 22.8454 81.3789 23.3546C82.0784 23.858 82.8627 24.2473 83.7262 24.5282C84.5925 24.8034 85.523 24.9438 86.5181 24.9496ZM86.562 21.6894C85.8479 21.6835 85.1924 21.5518 84.6012 21.2884C84.0071 21.022 83.4949 20.6592 83.0617 20.1967C82.6286 19.7344 82.292 19.1987 82.055 18.59C81.8179 17.9812 81.7009 17.3316 81.695 16.6379C81.7009 15.9326 81.815 15.277 82.0491 14.6683C82.2804 14.0595 82.611 13.5239 83.0383 13.0615C83.4686 12.602 83.9749 12.242 84.5603 11.9815C85.1514 11.7211 85.8011 11.5924 86.5181 11.5865C87.2322 11.5924 87.8879 11.7241 88.479 11.9874C89.0732 12.2538 89.5853 12.6167 90.0184 13.0791C90.4516 13.5415 90.7881 14.0771 91.0252 14.6858C91.2622 15.2946 91.3794 15.9443 91.3852 16.6379C91.3794 17.3432 91.2652 17.9988 91.0311 18.6076C90.7999 19.2163 90.4691 19.7519 90.0419 20.2143C89.6116 20.6737 89.1083 21.0337 88.5171 21.2942C87.9288 21.5518 87.2791 21.6835 86.562 21.6894ZM104.93 24.9263C106.013 24.9263 106.984 24.7769 107.854 24.4785C108.717 24.177 109.46 23.7233 110.072 23.1234C110.687 22.5235 111.158 21.7654 111.483 20.8582C111.81 19.9509 111.974 18.8885 111.977 17.671V8.60128H111.93C110.01 8.60128 108.442 10.17 108.442 12.0899V17.8086C108.439 18.6573 108.301 19.3685 108.026 19.9392C107.745 20.5128 107.35 20.943 106.835 21.2328C106.317 21.5196 105.699 21.6659 104.974 21.6659C104.251 21.6659 103.633 21.5167 103.115 21.2181C102.6 20.9197 102.205 20.4747 101.93 19.8865C101.649 19.2982 101.511 18.5666 101.508 17.6944V12.0899C101.508 10.17 99.9399 8.60128 98.02 8.60128H97.9731V17.7851C97.9819 19.3626 98.2599 20.6826 98.819 21.7391C99.372 22.7985 100.168 23.5946 101.207 24.1273C102.243 24.657 103.484 24.9263 104.93 24.9263ZM133.72 24.6745H139.986C141.001 24.6687 141.941 24.5341 142.812 24.2706C143.685 24.0072 144.475 23.6326 145.175 23.1468C145.874 22.6609 146.477 22.0873 146.977 21.4201C147.475 20.7557 147.858 20.0153 148.125 19.2104C148.388 18.4027 148.523 17.5452 148.525 16.6379C148.523 15.4907 148.312 14.4312 147.902 13.4536C147.492 12.4821 146.907 11.6333 146.149 10.9075C145.39 10.1817 144.493 9.61684 143.454 9.21589C142.408 8.81201 141.253 8.61007 139.986 8.60128H136.973C135.18 8.60128 133.72 10.0646 133.72 11.8586V24.6745ZM137.255 21.4815V11.7942H139.986C140.714 11.7972 141.369 11.9171 141.964 12.1484C142.558 12.3825 143.067 12.7162 143.494 13.1493C143.919 13.5766 144.249 14.0888 144.481 14.6799C144.712 15.2712 144.826 15.9237 144.828 16.6379C144.826 17.6096 144.618 18.4553 144.218 19.1783C143.816 19.9011 143.254 20.4689 142.526 20.8698C141.802 21.2708 140.957 21.4757 139.986 21.4815H137.255ZM159.134 24.7887H159.972C161.335 24.7887 162.495 23.9604 162.939 22.6727L165.836 14.2732L168.734 22.6727C169.178 23.9604 170.337 24.7887 171.701 24.7887H172.542L178.026 8.60128H176.742C175.287 8.60128 174.051 9.51441 173.628 10.9075L171.002 19.4855L167.4 8.55738H164.367L160.765 19.4855L158.139 10.9075C157.712 9.51441 156.479 8.60128 155.025 8.60128H153.647L159.134 24.7887ZM195.451 24.6745H203.099C204.009 24.6745 204.831 24.5808 205.569 24.3965C206.304 24.2151 206.938 23.9371 207.468 23.5712C207.996 23.2053 208.402 22.7459 208.682 22.1927C208.966 21.6425 209.107 20.9986 209.113 20.264C209.107 19.5353 208.987 18.9148 208.745 18.4085C208.505 17.8993 208.16 17.4749 207.712 17.1325C207.264 16.79 206.728 16.5032 206.104 16.2721C206.491 16.0613 206.848 15.8008 207.164 15.4907C207.483 15.1805 207.735 14.8058 207.925 14.3639C208.116 13.9249 208.215 13.4039 208.217 12.804C208.217 12.2304 208.124 11.7182 207.943 11.2587C207.758 10.8021 207.483 10.3895 207.114 10.0266C206.652 9.56416 206.066 9.21002 205.358 8.97004C204.65 8.7242 203.836 8.60128 202.914 8.60128H198.592C196.865 8.60128 195.451 10.0119 195.451 11.7416V24.6745ZM198.896 15.0985V11.7006H202.384C203.137 11.7065 203.71 11.847 204.103 12.1309C204.501 12.4177 204.699 12.8244 204.705 13.3542C204.699 13.7669 204.598 14.1004 204.389 14.358C204.185 14.6126 203.889 14.8058 203.512 14.9229C203.131 15.0429 202.681 15.0985 202.157 15.0985H198.896ZM198.896 21.5752V18.0369H202.982C203.886 18.0427 204.547 18.2007 204.972 18.5051C205.397 18.8094 205.604 19.2397 205.601 19.7841C205.601 20.1967 205.496 20.5333 205.297 20.7966C205.098 21.0601 204.811 21.2591 204.44 21.3879C204.07 21.5137 203.623 21.5752 203.099 21.5752H198.896Z" fill="black"/>
<path d="M53.5486 17.9463L54.8099 21.069L55.3953 22.503C55.9426 23.8435 57.1776 24.6747 58.6263 24.6747H59.9755L53.0891 8.4873H51.4121H49.738L42.8486 24.6747H44.2008C45.6495 24.6747 46.8845 23.8435 47.4318 22.503L48.0172 21.069L49.2786 17.9463L51.4121 12.7339L53.5486 17.9463Z" fill="black"/>
<path d="M50.1357 21.069L51.4118 17.9463L52.6936 21.069H50.1357Z" fill="black"/>
<path d="M17.7144 0C21.0185 0 24.1091 0.916046 26.7461 2.51107C25.7744 3.07885 25.0457 4.00953 24.7355 5.1041C15.3174 -0.242913 3.47026 6.54987 3.47026 17.5015C3.47026 25.3654 9.84455 31.7426 17.7144 31.7426C28.663 31.7426 35.4558 19.8954 30.1088 10.4775C31.2063 10.1731 32.137 9.44434 32.7047 8.46976C39.6907 20.0418 31.3673 35 17.7144 35C8.04757 35 0.212891 27.1653 0.212891 17.5015C0.212891 7.83467 8.04757 0 17.7144 0Z" fill="black"/>
<path d="M28.9361 8.60359C30.221 8.60359 31.2628 7.56189 31.2628 6.2769C31.2628 4.99189 30.221 3.9502 28.9361 3.9502C27.6511 3.9502 26.6094 4.99189 26.6094 6.2769C26.6094 7.56189 27.6511 8.60359 28.9361 8.60359Z" fill="black"/>
<path d="M21.0166 22.3568C21.599 23.788 22.9189 24.6747 24.4613 24.6747H26.7353L19.8957 8.4873H15.532L8.69238 24.6747H10.9664C12.5087 24.6747 13.8286 23.788 14.4111 22.3568C15.5612 19.5443 16.6002 16.6117 17.7153 13.767C18.8274 16.6117 19.8664 19.5443 21.0166 22.3568Z" fill="black"/>
<path d="M16.5137 21.069H18.9077L17.7136 17.9463L16.5137 21.069Z" fill="black"/>
</svg>
