<svg width="182" height="31" viewBox="0 0 182 31" fill="currentColor" xmlns="http://www.w3.org/2000/svg"><path d="M132.133 21.3793C133.012 21.3793 133.725 20.6663 133.725 19.7868C133.725 18.9073 133.012 18.1943 132.133 18.1943C131.253 18.1943 130.54 18.9073 130.54 19.7868C130.54 20.6663 131.253 21.3793 132.133 21.3793Z"></path><path d="M161.863 15.7295C163.361 15.7295 164.583 14.5073 164.583 13.0086V13.0035C161.83 13.0035 161.845 13.0035 159.093 13.0035V10.1787H163.833C165.329 10.1787 166.551 8.95642 166.551 7.45776V7.45269H158.87C158.107 7.45269 156.051 8.54308 156.051 10.275V21.3793H166.653V21.3742C166.653 19.8756 165.43 18.6533 163.932 18.6533H159.093V15.7295H161.863ZM100.174 21.3793H103.197V12.5268L109.94 21.3793H112.546V10.275C112.546 8.72059 111.279 7.45269 109.724 7.45269H109.521V16.0262L103.844 8.5659C103.293 7.8432 102.51 7.45269 101.599 7.45269H100.174V21.3793V21.3793ZM54.1445 21.3793H57.2078V16.9213H59.5737L61.6987 20.0531C62.2794 20.9076 63.1669 21.3793 64.199 21.3793H66.1794L62.7764 16.404C63.3698 16.186 63.8896 15.8817 64.3384 15.4937C64.7822 15.1057 65.1296 14.629 65.3781 14.061C65.6317 13.4955 65.7559 12.8387 65.761 12.0881C65.761 11.4136 65.657 10.8025 65.4542 10.2624C65.2539 9.71715 64.9546 9.2531 64.5667 8.86513C64.1102 8.40615 63.5397 8.05621 62.8601 7.81531C62.1805 7.57694 61.3944 7.45269 60.5094 7.45269H57.1672C55.5012 7.45269 54.1445 8.81188 54.1445 10.4754V21.3793V21.3793ZM57.2078 14.2182V10.2192H60.2507C60.7503 10.2192 61.1788 10.2928 61.5364 10.4399C61.899 10.5895 62.1729 10.8126 62.3656 11.1068C62.5583 11.4035 62.6572 11.7711 62.6572 12.2073C62.6572 12.6156 62.5634 12.968 62.3833 13.2698C62.1957 13.5665 61.932 13.7998 61.582 13.9646C61.2321 14.132 60.8111 14.2131 60.3091 14.2182H57.2078V14.2182ZM74.9913 21.6176C75.8535 21.6126 76.6624 21.4909 77.413 21.25C78.1636 21.0065 78.8457 20.6616 79.4594 20.2204C80.068 19.7792 80.5954 19.2594 81.0366 18.6584C81.4753 18.0599 81.8126 17.4032 82.051 16.683C82.2868 15.9679 82.406 15.2122 82.411 14.416C82.406 13.6147 82.2893 12.8514 82.056 12.1312C81.8202 11.4136 81.4855 10.7518 81.0519 10.1533C80.6132 9.55486 80.0933 9.03503 79.4847 8.59633C78.8761 8.16018 78.1966 7.81784 77.446 7.57948C76.6979 7.34111 75.8915 7.2194 75.0293 7.21432C74.1672 7.2194 73.3633 7.34111 72.6102 7.58201C71.8571 7.82545 71.1749 8.16778 70.5613 8.61155C69.9501 9.05278 69.4227 9.57261 68.9865 10.1711C68.5453 10.7695 68.2081 11.4288 67.9672 12.149C67.7339 12.8641 67.6147 13.6197 67.6096 14.416C67.6147 15.2173 67.7339 15.9806 67.9646 16.7007C68.2004 17.4184 68.5352 18.0802 68.9688 18.6787C69.4075 19.2771 69.9273 19.7944 70.5384 20.2356C71.1445 20.6718 71.8241 21.0091 72.5722 21.2525C73.3228 21.4909 74.1291 21.6126 74.9913 21.6176V21.6176ZM75.0293 18.7928C74.4106 18.7877 73.8426 18.6736 73.3304 18.4454C72.8156 18.2146 72.3718 17.9002 71.9965 17.4995C71.6212 17.0989 71.3296 16.6348 71.1242 16.1074C70.9188 15.5799 70.8174 15.017 70.8123 14.416C70.8174 13.8049 70.9163 13.2368 71.1191 12.7094C71.3195 12.1819 71.606 11.7179 71.9762 11.3172C72.349 10.9191 72.7877 10.6072 73.2949 10.3815C73.8071 10.1558 74.37 10.0443 74.9913 10.0392C75.61 10.0443 76.1781 10.1584 76.6903 10.3866C77.2051 10.6174 77.6488 10.9318 78.0241 11.3325C78.3994 11.7331 78.691 12.1972 78.8964 12.7246C79.1018 13.2521 79.2033 13.815 79.2083 14.416C79.2033 15.0271 79.1044 15.5951 78.9015 16.1226C78.7012 16.65 78.4146 17.1141 78.0444 17.5147C77.6716 17.9128 77.2355 18.2247 76.7233 18.4504C76.2136 18.6736 75.6506 18.7877 75.0293 18.7928V18.7928ZM90.944 21.5974C91.8822 21.5974 92.7241 21.468 93.4773 21.2094C94.2253 20.9482 94.8694 20.5551 95.3994 20.0353C95.9319 19.5155 96.3402 18.8587 96.6216 18.0726C96.9056 17.2865 97.0477 16.366 97.0502 15.3111V7.45269H97.0096C95.3461 7.45269 93.9869 8.81188 93.9869 10.4754V15.4303C93.9844 16.1657 93.8652 16.7819 93.6269 17.2764C93.3834 17.7734 93.0411 18.1461 92.5948 18.3972C92.146 18.6457 91.6109 18.7725 90.982 18.7725C90.3557 18.7725 89.8206 18.6432 89.3718 18.3845C88.9255 18.1259 88.5832 17.7404 88.3448 17.2307C88.1014 16.721 87.9822 16.0871 87.9796 15.3314V10.4754C87.9796 8.81188 86.6205 7.45269 84.957 7.45269H84.9164V15.41C84.924 16.7768 85.1649 17.9205 85.6493 18.8359C86.1285 19.7538 86.8183 20.4436 87.7185 20.9051C88.6161 21.3641 89.6913 21.5974 90.944 21.5974V21.5974ZM115.889 21.3793H121.318C122.198 21.3742 123.012 21.2576 123.767 21.0293C124.523 20.8011 125.208 20.4765 125.814 20.0556C126.42 19.6346 126.942 19.1376 127.376 18.5595C127.807 17.9838 128.139 17.3423 128.37 16.6449C128.598 15.9451 128.715 15.2021 128.717 14.416C128.715 13.422 128.532 12.504 128.177 11.657C127.822 10.8152 127.315 10.0798 126.658 9.4509C126.001 8.82202 125.223 8.33261 124.323 7.98521C123.417 7.63527 122.416 7.4603 121.318 7.45269H118.708C117.154 7.45269 115.889 8.72059 115.889 10.275V21.3793V21.3793ZM118.952 18.6127V10.2192H121.318C121.949 10.2218 122.517 10.3257 123.032 10.5261C123.547 10.7289 123.988 11.018 124.358 11.3933C124.726 11.7635 125.012 12.2073 125.213 12.7195C125.413 13.2318 125.512 13.7972 125.514 14.416C125.512 15.2579 125.332 15.9907 124.985 16.6171C124.637 17.2434 124.15 17.7353 123.519 18.0827C122.892 18.4301 122.16 18.6077 121.318 18.6127H118.952V18.6127ZM137.909 21.4782H138.635C139.816 21.4782 140.821 20.7605 141.206 19.6448L143.716 12.3671L146.227 19.6448C146.612 20.7605 147.616 21.4782 148.798 21.4782H149.526L154.278 7.45269H153.165C151.905 7.45269 150.834 8.24386 150.467 9.4509L148.192 16.8833L145.071 7.41465H142.443L139.322 16.8833L137.047 9.4509C136.677 8.24386 135.609 7.45269 134.349 7.45269H133.155L137.909 21.4782ZM169.376 21.3793H176.002C176.791 21.3793 177.503 21.2981 178.142 21.1384C178.779 20.9812 179.329 20.7403 179.788 20.4233C180.245 20.1063 180.597 19.7082 180.84 19.2289C181.086 18.7522 181.208 18.1943 181.213 17.5578C181.208 16.9264 181.104 16.3888 180.894 15.9501C180.686 15.5089 180.387 15.1412 179.999 14.8445C179.611 14.5478 179.147 14.2993 178.606 14.099C178.941 13.9164 179.251 13.6907 179.524 13.422C179.801 13.1532 180.019 12.8286 180.184 12.4457C180.349 12.0653 180.435 11.6139 180.437 11.0941C180.437 10.5971 180.356 10.1533 180.199 9.75519C180.039 9.35961 179.801 9.00206 179.481 8.68762C179.081 8.28697 178.573 7.98013 177.96 7.7722C177.346 7.55919 176.641 7.45269 175.842 7.45269H172.097C170.601 7.45269 169.376 8.67494 169.376 10.1736V21.3793ZM172.361 13.0822V10.1381H175.383C176.035 10.1432 176.532 10.2649 176.872 10.5109C177.217 10.7594 177.389 11.1118 177.394 11.5708C177.389 11.9284 177.301 12.2174 177.12 12.4406C176.943 12.6612 176.687 12.8286 176.36 12.93C176.03 13.034 175.64 13.0822 175.186 13.0822H172.361V13.0822ZM172.361 18.6939V15.6281H175.901C176.684 15.6332 177.257 15.7701 177.625 16.0338C177.993 16.2975 178.173 16.6703 178.17 17.142C178.17 17.4995 178.079 17.7911 177.907 18.0193C177.734 18.2476 177.486 18.42 177.164 18.5316C176.844 18.6406 176.456 18.6939 176.002 18.6939H172.361V18.6939Z"></path><path d="M46.4254 15.5495L47.5183 18.2552L48.0255 19.4977C48.4997 20.6591 49.5698 21.3793 50.825 21.3793H51.994L46.0273 7.35382H44.5743H43.1238L37.1545 21.3793H38.3261C39.5813 21.3793 40.6514 20.6591 41.1256 19.4977L41.6328 18.2552L42.7257 15.5495L44.5743 11.0333L46.4254 15.5495V15.5495Z"></path><path d="M43.4688 18.2552L44.5744 15.5495L45.685 18.2552H43.4688Z"></path><path d="M15.3772 0C18.2401 0 20.9179 0.793704 23.2027 2.17571C22.3608 2.66766 21.7294 3.47404 21.4606 4.42243C13.3004 -0.210471 3.03547 5.67511 3.03547 15.1641C3.03547 21.9777 8.55844 27.5032 15.3772 27.5032C24.8636 27.5032 30.7492 17.2383 26.1163 9.07815C27.0672 8.81442 27.8736 8.18301 28.3655 7.33859C34.4185 17.3651 27.2067 30.3256 15.3772 30.3256C7.00146 30.3256 0.213135 23.5373 0.213135 15.1641C0.213135 6.78832 7.00146 0 15.3772 0V0Z"></path><path d="M25.0995 7.45522C26.2128 7.45522 27.1154 6.55265 27.1154 5.43927C27.1154 4.32588 26.2128 3.42331 25.0995 3.42331C23.9861 3.42331 23.0835 4.32588 23.0835 5.43927C23.0835 6.55265 23.9861 7.45522 25.0995 7.45522Z"></path><path d="M18.2376 19.371C18.7422 20.611 19.8858 21.3793 21.2222 21.3793H23.1925L17.2664 7.35382H13.4855L7.55933 21.3793H9.52964C10.866 21.3793 12.0096 20.611 12.5143 19.371C13.5108 16.9341 14.411 14.3932 15.3772 11.9284C16.3408 14.3932 17.241 16.9341 18.2376 19.371V19.371Z"></path><path d="M14.3374 18.2552H16.4117L15.3771 15.5495L14.3374 18.2552Z"></path></svg>