<svg width="212" height="39" viewBox="0 0 212 39" fill="none" xmlns="http://www.w3.org/2000/svg">
<path d="M9.62122 35.9892C6.69199 34.3741 4.25529 31.9951 2.57028 29.1055C0.838844 26.1096 -0.0496605 22.701 -0.00103581 19.2411C-0.0496605 15.7812 0.838844 12.3726 2.57028 9.37669C4.25529 6.48705 6.69199 4.10814 9.62122 2.49295C12.6989 0.807184 16.1614 -0.0509904 19.6701 0.00234251C22.259 -0.0243453 24.8308 0.42513 27.2572 1.32836C29.5018 2.16975 31.5235 3.51489 33.1666 5.26028L31.4371 7.04752C28.4045 4.04957 24.5206 2.5506 19.7854 2.5506C16.7641 2.5154 13.785 3.26216 11.1375 4.71835C8.5774 6.11184 6.44942 8.18198 4.98593 10.7027C3.49109 13.2975 2.72239 16.2468 2.76054 19.2411C2.72172 22.2337 3.4905 25.1813 4.98593 27.7737C6.43789 30.2949 8.55629 32.3674 11.1087 33.7638C13.7562 35.22 16.7353 35.9668 19.7566 35.9316C24.4534 35.9316 28.3373 34.4153 31.4082 31.3828L33.1378 33.17C31.4846 34.9224 29.4538 36.275 27.1996 37.125C24.7868 38.0444 22.2232 38.5039 19.6413 38.4799C16.1423 38.5282 12.6904 37.6702 9.62122 35.9892Z" fill="#FAFF7F"/>
<path d="M17.3242 17.327L26.2546 14.1445L21.3311 22.2505L17.3242 17.327Z" fill="#FAFF7F"/>
<path d="M21.3308 22.2507L12.4004 25.4331L17.3239 17.3271L21.3308 22.2507Z" fill="#FAFF7F"/>
<path d="M41.4341 25.7213C40.2788 25.0732 39.3221 24.1224 38.6667 22.9713C37.983 21.7584 37.6347 20.3853 37.6578 18.9932C37.6297 17.5932 37.9782 16.2114 38.6667 14.9921C39.3193 13.8417 40.277 12.894 41.4341 12.2536C42.6509 11.6099 44.0067 11.2734 45.3833 11.2734C46.7599 11.2734 48.1157 11.6099 49.3325 12.2536C50.4889 12.8911 51.4436 13.8398 52.0883 14.9921C52.762 16.2082 53.104 17.5801 53.08 18.9701C53.1034 20.3601 52.7615 21.7319 52.0883 22.9482C51.4406 24.1013 50.4869 25.0529 49.3325 25.6982C48.1191 26.3527 46.762 26.6953 45.3833 26.6953C44.0046 26.6953 42.6475 26.3527 41.4341 25.6982V25.7213ZM48.2832 24.1647C49.1376 23.6767 49.8324 22.9518 50.2838 22.0776C50.775 21.1248 51.0226 20.0651 51.0045 18.9932C51.0226 17.9213 50.775 16.8616 50.2838 15.9088C49.8289 15.0415 49.1345 14.3232 48.2832 13.839C47.3968 13.3637 46.4065 13.1149 45.4006 13.1149C44.3947 13.1149 43.4044 13.3637 42.518 13.839C41.6597 14.3301 40.9596 15.0562 40.5001 15.9318C39.9969 16.8809 39.7429 17.9422 39.7622 19.0163C39.7429 20.0903 39.9969 21.1516 40.5001 22.1007C40.9605 22.9742 41.6605 23.6982 42.518 24.1877C43.4032 24.6671 44.3939 24.9181 45.4006 24.9181C46.4073 24.9181 47.398 24.6671 48.2832 24.1877V24.1647Z" fill="#828282"/>
<path d="M80.9434 12.9399C82.0272 14.0353 82.5692 15.6495 82.5692 17.7827V26.5748H80.5225V17.9845C80.5225 16.4106 80.142 15.2056 79.3695 14.3812C78.9529 13.9567 78.4502 13.6265 77.8953 13.4127C77.3404 13.1989 76.7461 13.1065 76.1524 13.1416C75.4649 13.1056 74.7777 13.2165 74.1364 13.467C73.4952 13.7176 72.9148 14.1019 72.4338 14.5945C71.4755 15.7129 70.9896 17.1601 71.079 18.6302V26.5863H69.0323V17.9845C69.0323 16.4106 68.6518 15.2056 67.8792 14.3812C67.4578 13.9551 66.9502 13.6241 66.3904 13.4103C65.8306 13.1965 65.2315 13.1049 64.6334 13.1416C63.9487 13.1077 63.2647 13.2197 62.6265 13.4702C61.9884 13.7206 61.4108 14.1039 60.9321 14.5945C59.9637 15.708 59.471 17.1572 59.5599 18.6302V26.5863H57.5479V11.4121H59.508V14.1794C60.0357 13.2661 60.8167 12.5252 61.7565 12.0462C62.784 11.5301 63.922 11.2728 65.0715 11.2967C66.2256 11.2678 67.3662 11.5485 68.3751 12.1097C69.3145 12.6565 70.0478 13.4973 70.4621 14.5022C71.0224 13.5027 71.8591 12.6859 72.872 12.15C73.977 11.5705 75.2104 11.279 76.458 11.3025C77.2776 11.2564 78.0981 11.3778 78.8693 11.6593C79.6405 11.9408 80.3462 12.3765 80.9434 12.9399Z" fill="#828282"/>
<path d="M100.096 12.2599C101.238 12.8947 102.178 13.8402 102.805 14.9869C103.477 16.2242 103.815 17.6151 103.785 19.0226C103.812 20.4298 103.474 21.8199 102.805 23.0583C102.182 24.2005 101.248 25.1437 100.113 25.7795C98.9263 26.4355 97.5886 26.7695 96.2329 26.7481C95.0753 26.7558 93.9334 26.4807 92.9063 25.9467C91.9089 25.4339 91.0668 24.6635 90.4676 23.7155V32.1674H88.4209V11.4124H90.3811V14.4161C90.9721 13.4423 91.8146 12.6457 92.8198 12.11C93.872 11.5594 95.0455 11.2819 96.2329 11.3029C97.5814 11.2836 98.912 11.6133 100.096 12.2599ZM98.9425 24.1652C99.8064 23.6783 100.513 22.954 100.978 22.0782C101.479 21.1286 101.731 20.0673 101.71 18.9938C101.731 17.9238 101.479 16.8662 100.978 15.9209C100.514 15.0554 99.8192 14.3352 98.9714 13.8396C98.0895 13.3499 97.0974 13.093 96.0887 13.093C95.08 13.093 94.088 13.3499 93.2061 13.8396C92.3532 14.335 91.6547 15.0576 91.1882 15.9266C90.6847 16.8714 90.4307 17.9291 90.4503 18.9995C90.4311 20.0736 90.685 21.1349 91.1882 22.0839C91.6486 22.9574 92.3486 23.6815 93.2061 24.171C94.0903 24.6534 95.0815 24.9062 96.0887 24.9062C97.096 24.9062 98.0871 24.6534 98.9714 24.171L98.9425 24.1652Z" fill="#828282"/>
<path d="M122.09 11.4119V26.5746H120.13V23.5766C119.545 24.5535 118.703 25.3512 117.697 25.8828C116.642 26.4308 115.467 26.7082 114.278 26.6899C112.927 26.7072 111.595 26.3692 110.415 25.7098C109.273 25.0687 108.335 24.1198 107.705 22.9713C107.034 21.734 106.696 20.3431 106.725 18.9356C106.701 17.5378 107.039 16.1575 107.705 14.9287C108.333 13.782 109.272 12.8365 110.415 12.2017C111.598 11.5531 112.929 11.2214 114.278 11.2389C115.438 11.2398 116.582 11.5206 117.61 12.0576C118.605 12.5751 119.444 13.347 120.043 14.2945V11.4119H122.09ZM117.322 24.1647C118.179 23.6752 118.879 22.9512 119.34 22.0777C119.841 21.1281 120.093 20.0668 120.072 18.9932C120.093 17.9197 119.841 16.8584 119.34 15.9088C118.875 15.043 118.176 14.3257 117.322 13.8391C116.437 13.3587 115.446 13.1071 114.439 13.1071C113.432 13.1071 112.442 13.3587 111.557 13.8391C110.698 14.3302 109.998 15.0563 109.539 15.9319C109.036 16.8809 108.782 17.9423 108.801 19.0163C108.786 20.0826 109.039 21.1355 109.539 22.0777C109.999 22.9512 110.699 23.6752 111.557 24.1647C112.44 24.6486 113.432 24.9023 114.439 24.9023C115.447 24.9023 116.438 24.6486 117.322 24.1647Z" fill="#828282"/>
<path d="M128.623 26.1819C127.663 25.914 126.766 25.4595 125.982 24.8443L126.905 23.23C127.625 23.7745 128.434 24.1882 129.297 24.4523C130.265 24.7712 131.277 24.9328 132.295 24.9308C133.36 25.0041 134.425 24.7784 135.368 24.2793C135.681 24.0901 135.938 23.8211 136.112 23.4999C136.286 23.1788 136.372 22.817 136.36 22.4517C136.369 22.2034 136.321 21.9563 136.222 21.7287C136.122 21.5012 135.972 21.299 135.783 21.1372C135.379 20.8004 134.907 20.5546 134.4 20.4166C133.669 20.2188 132.928 20.061 132.18 19.9438C131.177 19.768 130.185 19.5311 129.211 19.2347C128.475 19.0064 127.814 18.5842 127.297 18.0125C126.734 17.3466 126.45 16.4899 126.501 15.6199C126.493 15.0113 126.633 14.4099 126.91 13.8675C127.186 13.3251 127.59 12.8581 128.087 12.5066C129.144 11.6995 130.614 11.2959 132.497 11.2959C133.49 11.2966 134.478 11.4264 135.437 11.6822C136.296 11.8882 137.114 12.2349 137.859 12.7084L136.965 14.3515C135.647 13.4661 134.085 13.0128 132.497 13.0543C131.466 12.9859 130.438 13.2268 129.545 13.7461C129.24 13.9409 128.99 14.2106 128.818 14.5295C128.647 14.8484 128.56 15.2059 128.565 15.568C128.556 15.8265 128.602 16.0841 128.702 16.3229C128.802 16.5618 128.952 16.7763 129.142 16.9516C129.54 17.3117 130.018 17.5725 130.537 17.7127C131.296 17.9238 132.066 18.0932 132.843 18.22C133.826 18.3959 134.798 18.6268 135.755 18.9118C136.473 19.1332 137.119 19.541 137.628 20.0937C138.177 20.7324 138.456 21.5593 138.407 22.3998C138.421 23.0228 138.277 23.6392 137.988 24.191C137.698 24.7428 137.273 25.2117 136.752 25.5534C135.645 26.3222 134.108 26.7065 132.14 26.7065C130.947 26.7138 129.761 26.5368 128.623 26.1819Z" fill="#828282"/>
<path d="M142.978 26.1819C142.021 25.914 141.125 25.4594 140.344 24.8443L141.266 23.23C141.986 23.7745 142.796 24.1882 143.659 24.4523C144.626 24.7712 145.638 24.9328 146.657 24.9308C147.722 25.0022 148.785 24.7767 149.73 24.2793C150.041 24.0888 150.297 23.8195 150.471 23.4987C150.645 23.1778 150.731 22.8167 150.721 22.4517C150.73 22.2034 150.683 21.9563 150.583 21.7287C150.483 21.5011 150.333 21.299 150.145 21.1372C149.741 20.8004 149.269 20.5546 148.761 20.4166C148.03 20.2188 147.289 20.061 146.541 19.9438C145.538 19.768 144.547 19.5311 143.572 19.2347C142.835 19.0053 142.172 18.5833 141.652 18.0125C141.094 17.3446 140.812 16.4889 140.863 15.6199C140.855 15.0113 140.995 14.4099 141.271 13.8675C141.547 13.3251 141.951 12.8581 142.448 12.5066C143.505 11.6995 144.975 11.2959 146.859 11.2959C147.851 11.2966 148.84 11.4264 149.799 11.6822C150.657 11.8882 151.475 12.2349 152.22 12.7084L151.327 14.3515C150.008 13.4661 148.446 13.0128 146.859 13.0543C145.827 12.9838 144.799 13.2248 143.907 13.7461C143.61 13.9463 143.37 14.2184 143.207 14.5371C143.045 14.8558 142.966 15.2105 142.978 15.568C142.968 15.8267 143.014 16.0846 143.114 16.3236C143.213 16.5626 143.364 16.777 143.555 16.9516C143.953 17.3128 144.431 17.5737 144.95 17.7127C145.709 17.9238 146.479 18.0931 147.256 18.22C148.239 18.3959 149.211 18.6268 150.168 18.9118C150.886 19.1332 151.532 19.541 152.042 20.0937C152.59 20.7324 152.869 21.5593 152.82 22.3998C152.835 23.0234 152.69 23.6404 152.399 24.1923C152.109 24.7443 151.682 25.2128 151.159 25.5534C150.06 26.3221 148.523 26.7065 146.547 26.7065C145.338 26.7181 144.134 26.5411 142.978 26.1819Z" fill="#828282"/>
<path d="M159.651 26.5748L154.434 11.5332H156.74L160.804 23.7844L160.084 23.7268L164.494 13.8393H165.791L170.23 23.698L169.366 23.7556L173.534 11.5332H175.811L170.594 26.5806H169.325L164.655 15.8572L165.52 15.9148L160.994 26.5806L159.651 26.5748Z" fill="#828282"/>
<path d="M193.205 11.4121V26.5748H191.245V23.5768C190.66 24.5537 189.819 25.3513 188.812 25.8829C187.757 26.431 186.582 26.7084 185.393 26.6901C184.042 26.7074 182.71 26.3694 181.53 25.71C180.389 25.0688 179.45 24.12 178.821 22.9715C178.149 21.7342 177.811 20.3433 177.841 18.9358C177.816 17.538 178.154 16.1577 178.821 14.9289C179.448 13.7822 180.388 12.8367 181.53 12.2019C182.713 11.5533 184.044 11.2216 185.393 11.2391C186.547 11.2215 187.688 11.4825 188.72 12.0001C189.716 12.5168 190.558 13.2887 191.158 14.2371V11.3544L193.205 11.4121ZM188.431 24.1649C189.291 23.6777 189.991 22.9531 190.449 22.0779C190.954 21.1294 191.208 20.0676 191.187 18.9934C191.208 17.9192 190.954 16.8575 190.449 15.909C189.991 15.0322 189.291 14.3057 188.431 13.8162C187.553 13.3191 186.558 13.0663 185.549 13.084C184.54 13.0718 183.546 13.3242 182.666 13.8162C181.81 14.3105 181.111 15.0358 180.648 15.909C180.151 16.86 179.899 17.9203 179.916 18.9934C179.899 20.0665 180.151 21.1269 180.648 22.0779C181.111 22.9493 181.811 23.6726 182.666 24.1649C183.546 24.6589 184.54 24.9133 185.549 24.9028C186.558 24.9186 187.554 24.6638 188.431 24.1649Z" fill="#828282"/>
<path d="M200.988 33.2049L203.9 26.1136L204.101 28.1603L196.549 11.5332H198.999L204.159 23.0638C204.331 23.4148 204.485 23.7747 204.62 24.1419C204.774 24.557 204.918 24.9663 205.053 25.3699L204.245 25.2834C204.378 24.9548 204.511 24.6204 204.632 24.2745C204.753 23.9286 204.88 23.5942 204.995 23.2656L209.521 11.5332H212L205.917 26.5806L203.323 33.2107L200.988 33.2049Z" fill="#828282"/>
</svg>
