<!-- <svg width="446" height="446" viewBox="0 0 446 446" fill="red" xmlns="http://www.w3.org/2000/svg">
<g filter="url(#filter0_d_202_8595)">
<path fill-rule="evenodd" clip-rule="evenodd" d="M8 96C8 46.2944 48.2944 6 98 6H324C373.706 6 414 46.2944 414 96V322C414 371.706 373.706 412 324 412H98C48.2944 412 8 371.706 8 322V96ZM136.902 344.436C118.287 344.436 102.796 338.816 91.7028 327.722C73.8197 309.838 70.1533 280.494 81.3615 245.092C85.1142 233.245 90.3974 221.147 97.0267 209.087C96.9439 208.937 96.8619 208.786 96.7799 208.636C90.271 196.735 85.0758 184.799 81.3725 173.108C70.1642 137.706 73.8308 108.341 91.7139 90.4787C109.597 72.6157 138.939 68.9282 174.34 80.137C186.184 83.8876 198.276 89.1686 210.328 95.7946C222.381 89.1685 234.47 83.8875 246.311 80.1368C281.712 68.928 311.074 72.6051 328.936 90.4785C346.798 108.352 350.486 137.706 339.278 173.108C335.527 184.952 330.248 197.044 323.624 209.097C330.253 221.156 335.537 233.251 339.288 245.092C350.497 280.495 346.83 309.859 328.947 327.722C317.854 338.795 302.363 344.436 283.749 344.436C272.342 344.436 259.723 342.347 246.321 338.063C234.473 334.315 222.376 329.034 210.319 322.406C198.265 329.034 186.172 334.315 174.329 338.063C160.885 342.347 148.308 344.436 136.902 344.436ZM271.301 141.539C257.078 127.719 241.966 115.594 226.576 105.556C247.3 95.3436 267.172 89.8413 283.853 89.8413C295.894 89.8413 306.281 92.7478 314.118 98.7564L271.301 141.539ZM313.958 192.995C305.042 179.306 294.476 165.833 282.536 153.012L324.39 111.174C331.49 125.028 331.429 144.788 324.006 168.251C321.428 176.392 318.055 184.676 313.958 192.995ZM271.192 164.351C284.442 178.671 295.707 193.711 304.701 208.636C304.771 208.752 304.84 208.867 304.91 208.983C304.961 209.068 305.012 209.153 305.064 209.238C296.324 223.747 285.518 238.145 273.02 251.853L254.583 233.413C242.832 221.676 226.903 215.084 210.293 215.084C193.684 215.084 177.755 221.676 166.004 233.413L147.601 251.819C135.119 238.12 124.322 223.733 115.589 209.235C124.648 194.105 136.043 178.844 149.481 164.327L166.035 180.88C171.836 186.718 178.738 191.346 186.341 194.496C193.944 197.647 202.095 199.257 210.325 199.234C218.552 199.263 226.703 197.659 234.305 194.516C241.907 191.372 248.811 186.752 254.615 180.922L271.192 164.351ZM210.325 114.436C227.112 124.504 244.055 137.448 259.966 152.865L243.281 169.536C238.621 174.223 233.012 177.86 226.83 180.201C220.649 182.544 214.038 183.538 207.442 183.116C195.766 182.257 184.804 177.164 176.616 168.794L160.687 152.863C176.596 137.447 193.539 124.504 210.325 114.436ZM136.798 89.8415C153.48 89.8415 173.352 95.3445 194.078 105.558C178.692 115.594 163.581 127.717 149.356 141.532L106.552 98.726C114.385 92.7041 124.757 89.8415 136.798 89.8415ZM96.6442 168.251C89.2474 144.767 89.1737 124.991 96.2854 111.135L138.138 152.984C126.185 165.813 115.611 179.291 106.691 192.987C102.626 184.736 99.2745 176.518 96.705 168.442L96.6442 168.251ZM136.258 263.163C125.122 250.994 115.223 238.267 106.795 225.346C91.6394 256.114 86.8632 285.003 95.0574 304.371L136.258 263.163ZM147.403 274.744L104.429 317.688C118.066 329.948 141.061 331.737 169.492 322.77C177.625 320.195 185.9 316.826 194.21 312.733C178.069 302.219 162.232 289.404 147.403 274.744ZM251.158 322.77C243.023 320.194 234.745 316.824 226.431 312.73C242.582 302.208 258.431 289.384 273.272 274.719L316.231 317.68C302.595 329.95 279.596 331.779 251.158 322.77ZM210.323 303.92C228.041 293.264 245.599 279.526 261.938 263.385L244.065 245.51C235.878 237.14 224.916 232.048 213.239 231.189C206.643 230.766 200.032 231.759 193.85 234.102C187.669 236.444 182.06 240.081 177.4 244.769L158.741 263.415C175.067 279.543 192.614 293.27 210.323 303.92ZM325.574 304.415L284.365 263.199C295.515 251.022 305.425 238.287 313.859 225.354C329.023 256.142 333.793 285.049 325.574 304.415Z" fill="white"/>
</g>
<defs>
<filter id="filter0_d_202_8595" x="0.6" y="0.6" width="444.8" height="444.8" filterUnits="userSpaceOnUse" color-interpolation-filters="sRGB">
<feFlood flood-opacity="0" result="BackgroundImageFix"/>
<feColorMatrix in="SourceAlpha" type="matrix" values="0 0 0 0 0 0 0 0 0 0 0 0 0 0 0 0 0 0 127 0" result="hardAlpha"/>
<feOffset dx="12" dy="14"/>
<feGaussianBlur stdDeviation="9.7"/>
<feComposite in2="hardAlpha" operator="out"/>
<feColorMatrix type="matrix" values="0 0 0 0 0 0 0 0 0 0 0 0 0 0 0 0 0 0 0.1 0"/>
<feBlend mode="normal" in2="BackgroundImageFix" result="effect1_dropShadow_202_8595"/>
<feBlend mode="normal" in="SourceGraphic" in2="effect1_dropShadow_202_8595" result="shape"/>
</filter>
</defs>
</svg> -->
<svg width="446" height="446" viewBox="0 0 446 446" fill="red" xmlns="http://www.w3.org/2000/svg">
<defs>
    <linearGradient id="logo-gradient" x1="0%" y1="0%" x2="100%" y2="100%">
        <stop offset="0%" style="stop-color:#FF6B6B"/>
        <stop offset="50%" style="stop-color:#4ECDC4"/>
        <stop offset="100%" style="stop-color:#45B7D1"/>
    </linearGradient>
    <filter id="filter0_d_202_8595" x="0.6" y="0.6" width="444.8" height="444.8" filterUnits="userSpaceOnUse" color-interpolation-filters="sRGB">
        <feFlood flood-opacity="0" result="BackgroundImageFix"/>
        <feColorMatrix in="SourceAlpha" type="matrix" values="0 0 0 0 0 0 0 0 0 0 0 0 0 0 0 0 0 0 127 0" result="hardAlpha"/>
        <feOffset dx="12" dy="14"/>
        <feGaussianBlur stdDeviation="9.7"/>
        <feComposite in2="hardAlpha" operator="out"/>
        <feColorMatrix type="matrix" values="0 0 0 0 0 0 0 0 0 0 0 0 0 0 0 0 0 0 0.1 0"/>
        <feBlend mode="normal" in2="BackgroundImageFix" result="effect1_dropShadow_202_8595"/>
        <feBlend mode="normal" in="SourceGraphic" in2="effect1_dropShadow_202_8595" result="shape"/>
    </filter>
</defs>
<g filter="url(#filter0_d_202_8595)">
    <path fill-rule="evenodd" clip-rule="evenodd" d="M8 96C8 46.2944 48.2944 6 98 6H324C373.706 6 414 46.2944 414 96V322C414 371.706 373.706 412 324 412H98C48.2944 412 8 371.706 8 322V96ZM136.902 344.436C118.287 344.436 102.796 338.816 91.7028 327.722C73.8197 309.838 70.1533 280.494 81.3615 245.092C85.1142 233.245 90.3974 221.147 97.0267 209.087C96.9439 208.937 96.8619 208.786 96.7799 208.636C90.271 196.735 85.0758 184.799 81.3725 173.108C70.1642 137.706 73.8308 108.341 91.7139 90.4787C109.597 72.6157 138.939 68.9282 174.34 80.137C186.184 83.8876 198.276 89.1686 210.328 95.7946C222.381 89.1685 234.47 83.8875 246.311 80.1368C281.712 68.928 311.074 72.6051 328.936 90.4785C346.798 108.352 350.486 137.706 339.278 173.108C335.527 184.952 330.248 197.044 323.624 209.097C330.253 221.156 335.537 233.251 339.288 245.092C350.497 280.495 346.83 309.859 328.947 327.722C317.854 338.795 302.363 344.436 283.749 344.436C272.342 344.436 259.723 342.347 246.321 338.063C234.473 334.315 222.376 329.034 210.319 322.406C198.265 329.034 186.172 334.315 174.329 338.063C160.885 342.347 148.308 344.436 136.902 344.436ZM271.301 141.539C257.078 127.719 241.966 115.594 226.576 105.556C247.3 95.3436 267.172 89.8413 283.853 89.8413C295.894 89.8413 306.281 92.7478 314.118 98.7564L271.301 141.539ZM313.958 192.995C305.042 179.306 294.476 165.833 282.536 153.012L324.39 111.174C331.49 125.028 331.429 144.788 324.006 168.251C321.428 176.392 318.055 184.676 313.958 192.995ZM271.192 164.351C284.442 178.671 295.707 193.711 304.701 208.636C304.771 208.752 304.84 208.867 304.91 208.983C304.961 209.068 305.012 209.153 305.064 209.238C296.324 223.747 285.518 238.145 273.02 251.853L254.583 233.413C242.832 221.676 226.903 215.084 210.293 215.084C193.684 215.084 177.755 221.676 166.004 233.413L147.601 251.819C135.119 238.12 124.322 223.733 115.589 209.235C124.648 194.105 136.043 178.844 149.481 164.327L166.035 180.88C171.836 186.718 178.738 191.346 186.341 194.496C193.944 197.647 202.095 199.257 210.325 199.234C218.552 199.263 226.703 197.659 234.305 194.516C241.907 191.372 248.811 186.752 254.615 180.922L271.192 164.351ZM210.325 114.436C227.112 124.504 244.055 137.448 259.966 152.865L243.281 169.536C238.621 174.223 233.012 177.86 226.83 180.201C220.649 182.544 214.038 183.538 207.442 183.116C195.766 182.257 184.804 177.164 176.616 168.794L160.687 152.863C176.596 137.447 193.539 124.504 210.325 114.436ZM136.798 89.8415C153.48 89.8415 173.352 95.3445 194.078 105.558C178.692 115.594 163.581 127.717 149.356 141.532L106.552 98.726C114.385 92.7041 124.757 89.8415 136.798 89.8415ZM96.6442 168.251C89.2474 144.767 89.1737 124.991 96.2854 111.135L138.138 152.984C126.185 165.813 115.611 179.291 106.691 192.987C102.626 184.736 99.2745 176.518 96.705 168.442L96.6442 168.251ZM136.258 263.163C125.122 250.994 115.223 238.267 106.795 225.346C91.6394 256.114 86.8632 285.003 95.0574 304.371L136.258 263.163ZM147.403 274.744L104.429 317.688C118.066 329.948 141.061 331.737 169.492 322.77C177.625 320.195 185.9 316.826 194.21 312.733C178.069 302.219 162.232 289.404 147.403 274.744ZM251.158 322.77C243.023 320.194 234.745 316.824 226.431 312.73C242.582 302.208 258.431 289.384 273.272 274.719L316.231 317.68C302.595 329.95 279.596 331.779 251.158 322.77ZM210.323 303.92C228.041 293.264 245.599 279.526 261.938 263.385L244.065 245.51C235.878 237.14 224.916 232.048 213.239 231.189C206.643 230.766 200.032 231.759 193.85 234.102C187.669 236.444 182.06 240.081 177.4 244.769L158.741 263.415C175.067 279.543 192.614 293.27 210.323 303.92ZM325.574 304.415L284.365 263.199C295.515 251.022 305.425 238.287 313.859 225.354C329.023 256.142 333.793 285.049 325.574 304.415Z" fill="url(#logo-gradient)"/>
</g>
</svg>